<svg class="diagram" viewBox="0 0 760 190" xmlns="http://www.w3.org/2000/svg" role="img" aria-label="NTFS allocation model">
<defs><marker id="na-a" markerWidth="9" markerHeight="9" refX="7" refY="3" orient="auto"><path class="dg-arrowhead" d="M0,0 L7,3 L0,6 Z"/></marker></defs>
<rect class="dg-box" x="20" y="60" width="140" height="56" rx="7"/><text class="dg-text" x="90" y="84" text-anchor="middle" font-size="12">directory entry</text><text class="dg-muted" x="90" y="102" text-anchor="middle" font-size="10.5">name → MFT #</text>
<line class="dg-line" x1="160" y1="88" x2="194" y2="88" marker-end="url(#na-a)"/>
<rect class="dg-box-accent" x="200" y="36" width="190" height="104" rx="8"/>
<text class="dg-accent" x="295" y="58" text-anchor="middle" font-size="12" font-weight="700">MFT record</text>
<rect class="dg-box" x="214" y="68" width="162" height="22" rx="4"/><text class="dg-muted" x="295" y="84" text-anchor="middle" font-size="10.5">$STANDARD_INFORMATION · $FILE_NAME</text>
<rect class="dg-box" x="214" y="96" width="162" height="32" rx="4"/><text class="dg-muted" x="295" y="116" text-anchor="middle" font-size="10.5">$DATA → data runs</text>
<line class="dg-line" x1="390" y1="112" x2="424" y2="112" marker-end="url(#na-a)"/>
<rect class="dg-box" x="430" y="92" width="70" height="40" rx="5"/><text class="dg-muted" x="465" y="116" text-anchor="middle" font-size="10.5">clusters</text>
<rect class="dg-box" x="510" y="92" width="70" height="40" rx="5"/><text class="dg-muted" x="545" y="116" text-anchor="middle" font-size="10.5">clusters</text>
<rect class="dg-box" x="590" y="92" width="70" height="40" rx="5"/><text class="dg-muted" x="625" y="116" text-anchor="middle" font-size="10.5">clusters</text>
<text class="dg-muted" x="20" y="168" font-size="10.5">ReFS replaces the flat MFT with B+-tree objects keyed by Object ID — see Object Table.</text>
</svg>
